<svg xmlns="http://www.w3.org/2000/svg" viewBox="0 0 100 100">
  <defs>
    <radialGradient id="bg" cx="50%" cy="40%" r="60%">
      <stop offset="0%" stop-color="#2E7D32"/>
      <stop offset="100%" stop-color="#0D3B0F"/>
    </radialGradient>
  </defs>

  <!-- Background circle -->
  <circle cx="50" cy="50" r="50" fill="url(#bg)"/>

  <!-- Crescent moon -->
  <circle cx="50" cy="26" r="15" fill="#C8A951"/>
  <circle cx="56" cy="21" r="12" fill="#0D3B0F"/>

  <!-- Star -->
  <path d="M69 14 L70.1 17.4 L73.8 17.4 L70.8 19.5 L71.9 22.9 L69 20.8 L66.1 22.9 L67.2 19.5 L64.2 17.4 L67.9 17.4 Z" fill="#C8A951" opacity="0.9"/>

  <!-- Left hand (cupped, dua position) -->
  <path d="M46 76 C44 76 36 75 28 70 C20 65 15 56 16 46 C17 38 23 33 31 35 C36 36 40 40 43 46 C45 50 46 56 46 62 Z" fill="white" opacity="0.93"/>

  <!-- Right hand (mirror) -->
  <path d="M54 76 C56 76 64 75 72 70 C80 65 85 56 84 46 C83 38 77 33 69 35 C64 36 60 40 57 46 C55 50 54 56 54 62 Z" fill="white" opacity="0.93"/>

  <!-- Light rays -->
  <line x1="50" y1="63" x2="50" y2="57" stroke="#C8A951" stroke-width="1.5" stroke-linecap="round" opacity="0.6"/>
  <line x1="44" y1="64" x2="42" y2="58" stroke="#C8A951" stroke-width="1.2" stroke-linecap="round" opacity="0.5"/>
  <line x1="56" y1="64" x2="58" y2="58" stroke="#C8A951" stroke-width="1.2" stroke-linecap="round" opacity="0.5"/>
</svg>
